HIERARCHY
ROOT Hips
{
	OFFSET 0.000000 0.000000 0.000000
	CHANNELS 6 Xposition Yposition Zposition Yrotation Xrotation Zrotation
	JOINT Chest
	{
		OFFSET 0.000000 -0.009281 11.569106
		CHANNELS 3 Yrotation Xrotation Zrotation
		JOINT Chest2
		{
			OFFSET -0.000000 0.016865 9.269641
			CHANNELS 3 Yrotation Xrotation Zrotation
			JOINT Chest3
			{
				OFFSET -0.000000 0.000001 8.374491
				CHANNELS 3 Yrotation Xrotation Zrotation
				JOINT Chest4
				{
					OFFSET -0.000000 0.000001 8.374493
					CHANNELS 3 Yrotation Xrotation Zrotation
					JOINT Neck
					{
						OFFSET -0.000000 0.000002 12.152554
						CHANNELS 3 Yrotation Xrotation Zrotation
						JOINT Head
						{
							OFFSET -0.000000 0.040101 7.802319
							CHANNELS 3 Yrotation Xrotation Zrotation
							End Site
							{
								OFFSET -0.000000 0.020947 14.853096
							}
						}
					}
					JOINT RightCollar
					{
						OFFSET 2.894404 0.000001 6.791374
						CHANNELS 3 Yrotation Xrotation Zrotation
						JOINT RightShoulder
						{
							OFFSET 13.574684 0.000001 0.000000
							CHANNELS 3 Yrotation Xrotation Zrotation
							JOINT RightElbow
							{
								OFFSET 23.923903 0.000002 0.000000
								CHANNELS 3 Yrotation Xrotation Zrotation
								JOINT RightWrist
								{
									OFFSET 19.846718 0.012767 0.000000
									CHANNELS 3 Yrotation Xrotation Zrotation
									End Site
									{
										OFFSET 14.973145 0.000001 0.000000
									}
								}
							}
						}
					}
					JOINT LeftCollar
					{
						OFFSET -2.894404 0.000001 6.791374
						CHANNELS 3 Yrotation Xrotation Zrotation
						JOINT LeftShoulder
						{
							OFFSET -13.574684 -0.000001 0.000000
							CHANNELS 3 Yrotation Xrotation Zrotation
							JOINT LeftElbow
							{
								OFFSET -23.923903 -0.000002 0.000000
								CHANNELS 3 Yrotation Xrotation Zrotation
								JOINT LeftWrist
								{
									OFFSET -19.846718 0.012763 0.000000
									CHANNELS 3 Yrotation Xrotation Zrotation
									End Site
									{
										OFFSET -14.973145 -0.000001 0.000000
									}
								}
							}
						}
					}
				}
			}
		}
	}
	JOINT RightHip
	{
		OFFSET 9.469263 0.004643 0.045487
		CHANNELS 3 Yrotation Xrotation Zrotation
		JOINT RightKnee
		{
			OFFSET 0.000000 0.002661 -40.478676
			CHANNELS 3 Yrotation Xrotation Zrotation
			JOINT RightAnkle
			{
				OFFSET 0.000000 0.049106 -35.224068
				CHANNELS 3 Yrotation Xrotation Zrotation
				JOINT RightToe
				{
					OFFSET -0.000001 12.539529 -6.151390
					CHANNELS 3 Yrotation Xrotation Zrotation
					End Site
					{
						OFFSET -0.000001 5.044994 -1.291870
					}
				}
			}
		}
	}
	JOINT LeftHip
	{
		OFFSET -9.469263 0.004641 0.045487
		CHANNELS 3 Yrotation Xrotation Zrotation
		JOINT LeftKnee
		{
			OFFSET 0.000000 0.002661 -40.478676
			CHANNELS 3 Yrotation Xrotation Zrotation
			JOINT LeftAnkle
			{
				OFFSET 0.000000 0.049106 -35.224068
				CHANNELS 3 Yrotation Xrotation Zrotation
				JOINT LeftToe
				{
					OFFSET -0.000001 12.539529 -6.151390
					CHANNELS 3 Yrotation Xrotation Zrotation
					End Site
					{
						OFFSET -0.000001 5.044994 -1.291870
					}
				}
			}
		}
	}
}
MOTION
Frames: 12
Frame Time: 0.016667
10.545919 6.662482 83.122864 -6.075863 -2.135679 -110.571187 -0.442429 -3.078974 0.660879 -0.194761 -1.367630 0.290537 -0.194762 -1.367631 0.290540 -0.145414 -1.025816 0.217461 0.141751 -16.672987 -1.591392 -0.300181 5.209599 -2.901244 4.307212 17.895476 -2.129705 45.126145 50.449078 41.522434 42.145788 21.116747 64.552453 -67.551090 25.669280 -3.401396 -5.833935 11.582241 -4.152004 -37.609552 51.516381 -37.543815 -37.151216 25.675590 -60.464161 62.928459 23.523364 6.826614 -0.557415 -7.538062 -3.244814 1.519140 -2.708542 -6.541587 -0.588578 3.423907 3.740603 -0.012663 -0.012918 0.023591 -0.397104 -8.279032 -0.301785 1.068042 -1.906432 1.423578 -1.122845 4.081272 0.181550 0.018941 -0.013461 -0.023527 
10.540958 6.664606 83.124985 -6.037337 -2.114190 -110.523614 -0.440472 -3.069375 0.649473 -0.194092 -1.363481 0.284322 -0.194092 -1.363480 0.284322 -0.144928 -1.022701 0.212799 0.151918 -16.744897 -1.589525 -0.279092 5.076338 -2.893149 4.281884 18.040128 -2.137488 45.371198 50.884202 41.956906 44.181584 20.731712 65.683880 -66.499009 26.025995 -5.362920 -5.836102 11.669270 -4.170114 -37.556502 51.733905 -37.648587 -38.854224 25.313781 -62.021273 62.498184 24.111029 8.713887 -0.556431 -7.514015 -3.218962 1.514869 -2.668539 -6.584418 -0.581415 3.397627 3.715813 -0.010906 -0.009905 0.023703 -0.397342 -8.254856 -0.298037 1.072406 -1.842754 1.413480 -1.137716 4.036183 0.148706 0.021819 -0.013411 -0.023618 
10.536209 6.669242 83.126488 -5.992008 -2.093220 -110.483303 -0.443203 -3.058215 0.646005 -0.195081 -1.358264 0.282058 -0.195081 -1.358264 0.282060 -0.145677 -1.018788 0.211103 0.169850 -16.816870 -1.594089 -0.245899 4.943036 -2.894252 4.306070 18.221685 -2.088094 45.494654 51.310574 42.218735 46.047756 20.233452 66.818409 -65.451346 26.260016 -7.135015 -5.825115 11.738640 -4.180532 -37.632894 52.000819 -37.825219 -40.325898 24.835613 -63.474656 62.013118 24.602837 10.319225 -0.552156 -7.484581 -3.191404 1.509409 -2.623637 -6.632865 -0.574228 3.368515 3.716650 -0.009691 -0.008359 0.024115 -0.401028 -8.217094 -0.314606 1.083147 -1.796549 1.400473 -1.150003 4.002238 0.145301 0.021809 -0.014454 -0.024367 
10.531934 6.677250 83.127754 -5.938603 -2.070417 -110.446044 -0.449315 -3.044234 0.652913 -0.197184 -1.351858 0.285029 -0.197184 -1.351858 0.285034 -0.147251 -1.013986 0.213327 0.199726 -16.883200 -1.609376 -0.194480 4.820297 -2.911157 4.302544 18.322937 -2.089355 45.772663 51.749970 42.538121 47.645344 19.605162 67.934161 -64.255551 26.678374 -8.673906 -5.836473 11.824552 -4.222147 -37.870500 52.342103 -38.117390 -41.500581 24.213791 -64.696891 61.615041 25.093744 11.680479 -0.542121 -7.451067 -3.174557 1.497600 -2.567444 -6.683723 -0.566152 3.334407 3.664901 -0.008379 -0.008831 0.023667 -0.406713 -8.167267 -0.344571 1.091948 -1.757798 1.384197 -1.156149 3.972006 0.157564 0.021079 -0.015465 -0.024796 
10.527909 6.684771 83.128746 -5.875056 -2.044450 -110.413751 -0.448197 -3.032432 0.657924 -0.196333 -1.346274 0.287796 -0.196333 -1.346274 0.287794 -0.146608 -1.009798 0.215404 0.227232 -16.937329 -1.626535 -0.148379 4.720127 -2.932558 4.265635 18.373347 -2.107349 46.253170 52.254004 42.975998 48.849701 18.878889 68.909826 -62.824818 26.984851 -10.015764 -5.867361 11.993192 -4.224239 -38.210568 52.680177 -38.446366 -42.477421 23.504892 -65.770883 61.255227 25.561355 12.841183 -0.538399 -7.412830 -3.179707 1.486803 -2.501068 -6.723502 -0.554868 3.296725 3.667730 -0.006186 -0.010904 0.025015 -0.410720 -8.106402 -0.364213 1.097628 -1.721884 1.357575 -1.160044 3.944844 0.171275 0.019940 -0.016751 -0.026019 
10.526407 6.693014 83.129921 -5.807806 -2.019105 -110.386696 -0.435909 -3.022752 0.654990 -0.190428 -1.341557 0.286903 -0.190428 -1.341557 0.286906 -0.142185 -1.006258 0.214749 0.239630 -16.983472 -1.636098 -0.127771 4.634580 -2.945301 4.263558 18.535306 -2.082759 46.876941 52.847800 43.528912 49.843292 18.051707 69.651161 -61.347755 27.664363 -11.216047 -5.905804 12.135377 -4.219099 -38.639596 53.046777 -38.789327 -43.463373 22.793325 -66.935225 61.015220 26.168825 13.971475 -0.533874 -7.373653 -3.184946 1.476547 -2.431134 -6.758468 -0.543856 3.257670 3.698373 -0.004637 -0.012494 0.025601 -0.414256 -8.051283 -0.372222 1.102862 -1.671289 1.327812 -1.163952 3.911123 0.177533 0.019929 -0.017164 -0.026463 
10.526748 6.701339 83.132256 -5.738594 -1.994182 -110.371322 -0.427111 -3.012352 0.653464 -0.186502 -1.336869 0.286019 -0.186502 -1.336869 0.286021 -0.139245 -1.002740 0.214095 0.252380 -17.027720 -1.642307 -0.105388 4.552600 -2.951755 4.339585 18.758729 -1.981135 47.582731 53.543434 44.145490 50.892856 17.215249 70.301874 -59.877851 28.844053 -12.369901 -5.919442 12.147788 -4.238398 -39.127224 53.424155 -39.128234 -44.581502 22.139290 -68.357127 60.808252 26.879503 14.909391 -0.529987 -7.331102 -3.175205 1.463895 -2.363757 -6.790284 -0.527720 3.217488 3.715751 -0.005710 -0.012003 0.025719 -0.417490 -8.003395 -0.365463 1.107129 -1.606992 1.314518 -1.172799 3.868696 0.165201 0.023083 -0.014315 -0.025913 
10.528445 6.709941 83.135216 -5.662219 -1.965953 -110.364314 -0.436479 -2.981424 0.657785 -0.191099 -1.323477 0.287256 -0.191099 -1.323477 0.287257 -0.142695 -0.992699 0.215018 0.290388 -17.084979 -1.651778 -0.037134 4.446982 -2.955307 4.456149 18.921816 -1.846735 48.556102 54.448397 44.951172 52.053077 16.291295 70.793483 -58.437398 30.582800 -13.557089 -5.924083 12.095168 -4.235981 -39.741842 53.821648 -39.569055 -45.511337 21.424531 -69.719709 60.456019 27.599464 15.548384 -0.527346 -7.273141 -3.147837 1.454985 -2.310808 -6.830315 -0.513622 3.182086 3.698159 -0.007777 -0.008772 0.025293 -0.419740 -7.949840 -0.342029 1.104656 -1.540923 1.314561 -1.180938 3.826142 0.130785 0.027329 -0.011184 -0.024861 
10.528253 6.718886 83.137192 -5.574875 -1.933074 -110.362818 -0.465497 -2.931170 0.669918 -0.204188 -1.301831 0.291826 -0.204188 -1.301831 0.291825 -0.152512 -0.976471 0.218423 0.361139 -17.151459 -1.669744 0.088896 4.324825 -2.963156 4.511565 19.016630 -1.823649 49.680545 55.223657 45.735548 53.092160 15.375273 71.313165 -56.913706 32.627257 -14.609939 -5.986981 12.145751 -4.272717 -40.435218 54.355803 -40.079594 -45.988757 20.514369 -70.611875 59.859498 28.588110 16.039789 -0.531033 -7.194714 -3.102810 1.446464 -2.272614 -6.869785 -0.496896 3.154294 3.705000 -0.007806 -0.007506 0.025580 -0.425063 -7.881412 -0.323168 1.105779 -1.480258 1.315562 -1.191707 3.786619 0.110060 0.031527 -0.008958 -0.025438 
10.528106 6.727132 83.137604 -5.481867 -1.895161 -110.351207 -0.494451 -2.878999 0.675269 -0.217203 -1.278561 0.293887 -0.217203 -1.278562 0.293890 -0.162281 -0.959027 0.219957 0.440758 -17.216499 -1.696981 0.228021 4.205384 -2.985204 4.512488 19.060295 -1.879389 50.867660 55.937156 46.476340 53.786200 14.364757 71.711884 -55.090585 34.813262 -15.497419 -6.129748 12.320880 -4.393674 -40.989546 54.969386 -40.468526 -46.199608 19.534423 -71.168939 59.185426 30.064772 16.558696 -0.530531 -7.115773 -3.081348 1.437021 -2.223753 -6.916315 -0.486954 3.127514 3.716580 -0.005600 -0.010190 0.025200 -0.433208 -7.801560 -0.307382 1.110739 -1.427359 1.286055 -1.201993 3.753982 0.109518 0.033877 -0.009770 -0.025338 
10.527986 6.733072 83.137009 -5.388488 -1.861423 -110.337164 -0.501112 -2.832428 0.674802 -0.219742 -1.257644 0.293392 -0.219742 -1.257644 0.293390 -0.164196 -0.943339 0.219583 0.492962 -17.271771 -1.727789 0.314995 4.103429 -3.023538 4.545661 19.177884 -1.897722 51.891068 56.653363 47.076676 54.103090 13.299738 71.892146 -53.164635 37.350514 -16.149926 -6.278033 12.453611 -4.515855 -41.454716 55.571150 -40.731570 -46.619801 18.611449 -71.824459 58.925606 31.867685 17.260559 -0.525403 -7.036359 -3.064893 1.424729 -2.181271 -6.963131 -0.474244 3.105502 3.729582 -0.003653 -0.012840 0.025127 -0.430800 -7.718887 -0.293924 1.105247 -1.384258 1.251267 -1.204461 3.731152 0.113630 0.033040 -0.014041 -0.025151 
10.528544 6.740286 83.136322 -5.296027 -1.834427 -110.327916 -0.486905 -2.787987 0.668253 -0.212225 -1.238114 0.290243 -0.212225 -1.238114 0.290247 -0.158575 -0.928687 0.217246 0.505107 -17.313840 -1.749665 0.330757 4.025277 -3.059340 4.621583 19.298952 -1.830154 52.823092 57.406381 47.629351 54.408402 12.326878 71.972551 -50.728057 39.852819 -16.557447 -6.368894 12.417551 -4.581957 -41.963005 56.200805 -40.944095 -47.294532 17.780856 -72.642012 58.595428 33.484381 17.648061 -0.513687 -6.954817 -3.044273 1.412524 -2.148124 -7.009593 -0.460130 3.086489 3.729293 -0.004150 -0.014020 0.025104 -0.427518 -7.638149 -0.284588 1.105203 -1.346396 1.227891 -1.205427 3.713658 0.117537 0.029936 -0.019501 -0.025213 
